# xmcd CD database file
#
# Track frame offsets:
#	150
#	22460
#	40935
#	59610
#	75695
#	99845
#	115385
#	131997
#	143547
#	155435
#	175648
#	195973
#	216188
#	232088
#	256426
#	272853
#
# Disc length: 3845 seconds
#
# Revision: 0
# Processed by: cddbd v1.5.2PL0 Copyright (c) Steve Scherf et al.
# Submitted via: CDex 1.51
#
DISCID=e80f0310
DTITLE=Rory Block - Lovin' Whiskey
DYEAR=2009
DGENRE=Blues
TTITLE0=Silver Wings
TTITLE1=Do You Love Me
TTITLE2=Lovin' Whiskey
TTITLE3=It Ain't Right
TTITLE4=Gypsie Boy
TTITLE5=Misty Glen
TTITLE6=The Water Is Wide
TTITLE7=Catastrophe Rag
TTITLE8=God's Gift To Women
TTITLE9=Somebody's Baby
TTITLE10=Angel Of Mercy
TTITLE11=I'll Be Gone
TTITLE12=Lovin' Fool
TTITLE13=Love Without The Heart
TTITLE14=You Deserve The Best
TTITLE15=Lovin' Whiskey (live)
EXTD=YEAR: 2009
EXTT0=
EXTT1=
EXTT2=
EXTT3=
EXTT4=
EXTT5=
EXTT6=
EXTT7=
EXTT8=
EXTT9=
EXTT10=
EXTT11=
EXTT12=
EXTT13=
EXTT14=
EXTT15=
PLAYORDER=
